<svg width="30" height="30" viewBox="0 0 30 30" fill="none" xmlns="http://www.w3.org/2000/svg">
<path d="M26.25 6.25L15 17.5L10 12.5" stroke="#5CAD2F" stroke-width="3" stroke-linecap="round" stroke-linejoin="round"/>
<path d="M26.175 13.75C26.2253 14.1648 26.2503 14.5822 26.25 15C26.25 17.225 25.5902 19.4001 24.354 21.2502C23.1179 23.1002 21.3609 24.5422 19.3052 25.3936C17.2495 26.2451 14.9875 26.4679 12.8052 26.0338C10.623 25.5997 8.61839 24.5283 7.04505 22.9549C5.47171 21.3816 4.40025 19.3771 3.96617 17.1948C3.53209 15.0125 3.75487 12.7505 4.60636 10.6948C5.45785 8.63914 6.89979 6.88213 8.74984 5.64597C10.5999 4.4098 12.775 3.75 15 3.75C16.742 3.76626 18.4553 4.1946 20 5" stroke="#0F172A" stroke-width="3" stroke-linecap="round" stroke-linejoin="round"/>
</svg>
